<svg xmlns="http://www.w3.org/2000/svg" width="292.654" height="81.306" viewBox="0 0 292.654 81.306"><defs><style>.a{fill:#0044a6;font-size:33px;font-family:Helvetica;}.b{fill:#003c98;}</style></defs><g transform="translate(-157.346 -1605)"><text class="a" transform="translate(257 1657)"><tspan x="0" y="0">DEV - ECON</tspan></text><g transform="translate(152.334 1600)"><path class="b" d="M14.59,77.887l.147.075c.037.018.1.054.166.091a2.532,2.532,0,0,0,.888.2l.142,0,6.176,0a2.625,2.625,0,0,0,1.862-.767,2.594,2.594,0,0,0,.767-1.851A2.631,2.631,0,0,0,22.1,73.013H18.529V57.267a2.641,2.641,0,0,0-.037-.66A2.682,2.682,0,0,0,17.3,54.729l-.308-.247-5.725-5.726,6.364-6.37a2.606,2.606,0,0,0,.7-.975,2.544,2.544,0,0,0,.127-.421l.034-.121a3.785,3.785,0,0,0,.038-.719l0-15.964H22.1a2.548,2.548,0,0,0,1.876-4.362,2.643,2.643,0,0,0-1.869-.756l-6.209.038a2.64,2.64,0,0,0-.973.19c-.088.053-.148.089-.21.121l-.14.071a1.549,1.549,0,0,0-.164.085,2.667,2.667,0,0,0-.3.259l-.131.112a2.857,2.857,0,0,0-.246.31l-.066.094c-.061.1-.115.215-.167.326l-.055.108c-.031.084-.048.173-.07.26s-.048.17-.077.257-.047.182-.076.277c-.01.027-.005-.005,0-.041a2.284,2.284,0,0,1-.1.473L13.2,39.3,5.765,46.774a2.61,2.61,0,0,0-.753,1.919v.091a2.608,2.608,0,0,0,.775,1.944L13.2,58.2l-.077,17.146a2.218,2.218,0,0,1,.1.476,1.5,1.5,0,0,0,.026.165,2.311,2.311,0,0,1,.089.25c.032.117.058.22.09.313.029.053.055.1.079.158a3.053,3.053,0,0,0,.149.29l.093.137a2.624,2.624,0,0,0,.228.283c.046.037.089.074.132.113a2.362,2.362,0,0,0,.3.258A1.79,1.79,0,0,0,14.59,77.887Z" transform="translate(0 -1.359)"/><path class="b" d="M92.877,48.624a2.68,2.68,0,0,0-.774-2.034L84.7,39.115l.077-17.146a2.133,2.133,0,0,1-.1-.482c0-.05-.015-.1-.026-.16a2.432,2.432,0,0,1-.094-.272c-.026-.1-.053-.2-.086-.294-.031-.056-.059-.113-.084-.17a3.251,3.251,0,0,0-.151-.292l-.081-.117a2.579,2.579,0,0,0-.232-.287c-.046-.037-.089-.074-.131-.113a2.431,2.431,0,0,0-.313-.263,1.687,1.687,0,0,0-.191-.1l-.111-.056c-.058-.03-.131-.07-.2-.112a2.523,2.523,0,0,0-.866-.183l-.144,0-6.176,0a2.622,2.622,0,0,0-1.862.768,2.586,2.586,0,0,0-.768,1.849A2.631,2.631,0,0,0,75.793,24.3h3.569V40.052a2.629,2.629,0,0,0,.037.658,2.684,2.684,0,0,0,1.192,1.877l.309.247,5.726,5.725-6.364,6.371a2.6,2.6,0,0,0-.7.974,2.488,2.488,0,0,0-.126.417l-.036.128a3.759,3.759,0,0,0-.038.713l0,15.969H75.788a2.547,2.547,0,0,0-1.876,4.362,2.641,2.641,0,0,0,1.866.756l6.211-.038a2.611,2.611,0,0,0,.97-.189l.36-.2c.056-.028.115-.054.168-.088a3.394,3.394,0,0,0,.3-.257l.122-.106a2.771,2.771,0,0,0,.247-.31l.067-.095c.061-.1.114-.215.166-.326l.054-.106a2.824,2.824,0,0,0,.074-.276c.019-.076.045-.159.075-.243s.048-.183.076-.277c.011-.024,0,.012,0,.053a2.236,2.236,0,0,1,.1-.488L84.7,58.021l7.431-7.475A2.612,2.612,0,0,0,92.877,48.624Z" transform="translate(-6.582 -1.359)"/><path class="b" d="M63.55,7.237a2.229,2.229,0,0,0-1.269-.566l-.2-.008L44.324,5c-.042.006-.091.016-.141.023l-.13.02a2.513,2.513,0,0,1-.373.108,2.618,2.618,0,0,0-.306.075c-.049.019-.1.05-.158.077l-.321.15a2.52,2.52,0,0,0-.337.238l-.126.093a3.448,3.448,0,0,0-.269.287l-.065.075a3.669,3.669,0,0,0-.2.319l-.065.109c-.05.112-.08.207-.112.3-.018.052-.041.109-.065.167,0,.021-.006.053-.012.085l-.025.161c-.013.075-.03.157-.048.239l-6.079,66.1a2.593,2.593,0,0,0,.569,2.081l7.991,9.5c.032.05.06.1.1.148a2.632,2.632,0,0,0,2.024.947h0a2.588,2.588,0,0,0,1.689-.617l9.655-8.122a2.7,2.7,0,0,0,.329-.345l.06-.073a2.637,2.637,0,0,0,.533-1.454L63.1,24.9l.043-.155a2.533,2.533,0,0,0,.091-.456,2.471,2.471,0,0,0-.009-.432l-.014-.162,1.305-14.19A2.632,2.632,0,0,0,63.55,7.237ZM53.425,72.705,40.964,71.627l4.253-46.271,12.458,1.081Zm4.729-51.513L45.7,20.114l.878-9.513L59.03,11.682Z" transform="translate(-2.941)"/></g></g></svg>