<svg xmlns="http://www.w3.org/2000/svg" width="290.647" height="82.31" viewBox="0 0 290.647 82.31"><defs><style>.a{fill:#0044a6;stroke:rgba(0,0,0,0);stroke-miterlimit:10;}</style></defs><path class="a" d="M-1953.806,80.359c-.036-.048-.063-.1-.095-.148l-7.993-9.5a2.6,2.6,0,0,1-.568-2.081l6.079-66.1c.017-.082.035-.165.049-.239l.024-.161c.005-.032.01-.064.013-.085.023-.058.046-.114.065-.167.031-.092.062-.186.112-.3l.065-.109a3.482,3.482,0,0,1,.2-.319l.065-.075a3.453,3.453,0,0,1,.27-.287l.126-.094a2.621,2.621,0,0,1,.337-.238l.32-.149c.057-.027.111-.058.158-.076a2.469,2.469,0,0,1,.307-.076,2.546,2.546,0,0,0,.373-.108l.13-.02c.05-.007.1-.017.142-.023l17.752,1.662.205.008a2.225,2.225,0,0,1,1.268.566,2.632,2.632,0,0,1,.969,2.269l-1.306,14.19.014.161a2.4,2.4,0,0,1,.01.432,2.543,2.543,0,0,1-.092.456l-.043.156-4.666,50.793a2.639,2.639,0,0,1-.532,1.454l-.06.074a2.688,2.688,0,0,1-.328.345l-9.655,8.122a2.585,2.585,0,0,1-1.688.617A2.637,2.637,0,0,1-1953.806,80.359Zm-3.182-13.733,12.461,1.079,4.251-46.269-12.457-1.081Zm4.732-51.512,12.459,1.078.875-9.509L-1951.38,5.6Zm-26.822,56.773-.142,0a2.523,2.523,0,0,1-.888-.2c-.063-.037-.128-.073-.165-.091l-.148-.075a1.708,1.708,0,0,1-.177-.095,2.3,2.3,0,0,1-.3-.258c-.043-.039-.086-.076-.132-.113a2.845,2.845,0,0,1-.228-.283l-.094-.138c-.056-.1-.106-.2-.149-.29-.023-.053-.049-.105-.078-.158-.033-.093-.058-.2-.09-.312a2.443,2.443,0,0,0-.089-.25,1.318,1.318,0,0,1-.026-.166,2.217,2.217,0,0,0-.1-.476l.077-17.146-7.411-7.475a2.609,2.609,0,0,1-.775-1.944l0-.046,0-.045a2.618,2.618,0,0,1,.752-1.919l7.431-7.475-.076-17.288a2.246,2.246,0,0,0,.1-.431c0,.01,0,.012.007,0,.028-.1.056-.192.076-.277s.057-.174.077-.257a2.362,2.362,0,0,1,.07-.26l.055-.109c.053-.111.106-.22.167-.326l.066-.094a3.122,3.122,0,0,1,.246-.31l.132-.112a2.607,2.607,0,0,1,.3-.259,1.777,1.777,0,0,1,.165-.086l.139-.071c.061-.032.122-.068.21-.121a2.636,2.636,0,0,1,.973-.19l6.209-.038a2.643,2.643,0,0,1,1.869.756,2.547,2.547,0,0,1,.76,1.827,2.559,2.559,0,0,1-2.636,2.534h-3.57l0,15.964a3.8,3.8,0,0,1-.039.719l-.034.121a2.529,2.529,0,0,1-.126.421,2.6,2.6,0,0,1-.7.975l-6.364,6.37,5.724,5.726.309.247a2.682,2.682,0,0,1,1.193,1.877,2.613,2.613,0,0,1,.036.66V66.653h3.57a2.631,2.631,0,0,1,2.639,2.619,2.6,2.6,0,0,1-.768,1.851,2.623,2.623,0,0,1-1.861.767Zm51.4-.754a2.546,2.546,0,0,1-.76-1.827,2.56,2.56,0,0,1,2.637-2.534h3.57l0-15.969a3.78,3.78,0,0,1,.039-.713l.036-.129a2.485,2.485,0,0,1,.126-.417,2.626,2.626,0,0,1,.7-.974l6.366-6.371-5.726-5.725-.31-.247a2.687,2.687,0,0,1-1.193-1.877,2.64,2.64,0,0,1-.038-.658l0-15.748h-3.57a2.632,2.632,0,0,1-2.639-2.619,2.588,2.588,0,0,1,.769-1.849,2.618,2.618,0,0,1,1.861-.768l6.176,0,.143,0a2.52,2.52,0,0,1,.866.183c.073.042.145.083.2.113l.111.056a1.493,1.493,0,0,1,.191.1,2.429,2.429,0,0,1,.313.263c.041.039.085.076.13.113a2.557,2.557,0,0,1,.232.287l.082.118c.051.088.1.188.15.292a1.758,1.758,0,0,0,.085.17c.031.094.059.193.085.293s.057.18.094.272c.012.055.022.111.027.16a2.149,2.149,0,0,0,.1.481l-.076,17.146,7.408,7.474a2.676,2.676,0,0,1,.773,2.034,2.608,2.608,0,0,1-.749,1.922l-7.432,7.475.076,17.285a2.284,2.284,0,0,0-.1.488c0-.041.01-.077,0-.053-.027.094-.054.185-.076.277s-.056.167-.075.243a2.442,2.442,0,0,1-.075.276l-.053.105c-.053.112-.106.221-.167.327l-.068.094a2.7,2.7,0,0,1-.247.311l-.121.105a3.72,3.72,0,0,1-.3.257c-.054.033-.112.059-.167.087l-.36.2a2.606,2.606,0,0,1-.97.189l-6.211.038A2.645,2.645,0,0,1-1927.683,71.132Zm184.435-22.049a13.626,13.626,0,0,1-2.787-8.8,14,14,0,0,1,2.384-8.218q3.062-4.383,9.056-4.383,6.268,0,9.282,4.028a13.06,13.06,0,0,1,2.353,8.041,14.071,14.071,0,0,1-2.691,8.814,10.672,10.672,0,0,1-9.007,4.126A10.765,10.765,0,0,1-1743.248,49.083Zm2.852-16.025q-2.321,2.522-2.32,7.437a10.864,10.864,0,0,0,1.99,6.63q1.99,2.7,6.453,2.7,4.238,0,6.132-3.038a12.931,12.931,0,0,0,1.893-6.985,9.96,9.96,0,0,0-2.183-6.719,7.451,7.451,0,0,0-5.97-2.546A7.775,7.775,0,0,0-1740.4,33.059Zm-25.62,17.056q-3.69-3.3-3.69-10.2a13.031,13.031,0,0,1,2.772-8.589,10.124,10.124,0,0,1,8.266-3.641,9.7,9.7,0,0,1,6.978,2.369,8.366,8.366,0,0,1,2.755,5.382h-3.126a6.5,6.5,0,0,0-2.12-3.625,6.711,6.711,0,0,0-4.455-1.337,7.144,7.144,0,0,0-5.648,2.457q-2.152,2.457-2.151,7.533a10.941,10.941,0,0,0,1.941,6.743,6.784,6.784,0,0,0,5.792,2.587,6.12,6.12,0,0,0,5.4-2.723,10.357,10.357,0,0,0,1.466-3.77h3.127a10.682,10.682,0,0,1-2.772,6.268,9.859,9.859,0,0,1-7.6,3.046A10.038,10.038,0,0,1-1766.016,50.115ZM-1703.948,52l-12.133-19.159V52h-3.062V28.329h3.786L-1703.4,47.5V28.329h3.046V52Zm-86.4,0V28.329h17.257v2.9h-14.131v7.186h13.068v2.74h-13.068v8.024h14.373V52Zm-44.7,0-8.62-23.671h3.544l6.8,20.158,6.719-20.158h3.594L-1831.645,52Zm-28.65,0V28.329h17.257v2.9h-14.131v7.186h13.067v2.74h-13.067v8.024h14.373V52Zm-23.992,0V28.329h9.587a9.035,9.035,0,0,1,7.573,3.465,12.767,12.767,0,0,1,2.4,8.008,15.946,15.946,0,0,1-1.418,6.816A8.748,8.748,0,0,1-1878.132,52Zm3.222-2.74h5.72a8.851,8.851,0,0,0,2.675-.338,5.878,5.878,0,0,0,3.062-2.417,9.92,9.92,0,0,0,1.37-3.674,14.016,14.016,0,0,0,.241-2.482,11.557,11.557,0,0,0-1.748-6.832q-1.748-2.433-5.632-2.433h-5.688Zm72.51-4.963V41.317h8.089V44.3Zm-169.835-29.12c0,.014,0,.029,0,.043C-1981.794,15.211-1981.791,15.195-1981.789,15.178Z" transform="translate(1990.5 0.504)"/></svg>